<svg id="Layer_1" data-name="Layer 1" xmlns="http://www.w3.org/2000/svg" viewBox="0 0 619.89 619.89"><defs><style>.cls-1{fill:#8ace7e;}.cls-2{fill:#fff;}</style></defs><circle class="cls-1" cx="309.94" cy="309.94" r="309.94"/><circle class="cls-2" cx="416.59" cy="238.49" r="45.14"/><circle class="cls-2" cx="191.21" cy="238.49" r="45.14"/><path class="cls-2" d="M1072.68,608.56a15.25,15.25,0,0,1,8.67,27.81c-1.25.86-31.09,21.19-75.68,31.43-59.57,13.68-117.32,2.82-167-31.43A15.25,15.25,0,1,1,856,611.26c23.72,16.35,49.36,26.52,76.19,30.21a184.6,184.6,0,0,0,66.7-3.39c39-9,64.93-26.64,65.19-26.82A15.2,15.2,0,0,1,1072.68,608.56Z" transform="translate(-650.06 -229.98)"/></svg>