<?xml version="1.0" encoding="UTF-8" standalone="no"?>
<!DOCTYPE svg PUBLIC "-//W3C//DTD SVG 1.1//EN" "http://www.w3.org/Graphics/SVG/1.1/DTD/svg11.dtd">
<svg width="100%" height="100%" viewBox="0 0 210 210" version="1.1" xmlns="http://www.w3.org/2000/svg" xmlns:xlink="http://www.w3.org/1999/xlink" xml:space="preserve" xmlns:serif="http://www.serif.com/" style="fill-rule:evenodd;clip-rule:evenodd;stroke-linejoin:round;stroke-miterlimit:2;">
    <rect x="0" y="0" width="19" height="19" style="fill:none;"/>
    <g transform="matrix(15.3802,0,0,15.3802,-9.67095,-5.43224)">
        <path d="M1.55,6.338C-0.837,1.742 5.18,-1.323 7.502,3.274C9.823,-1.323 15.841,1.741 13.454,6.338C13.367,6.505 13.252,6.684 13.143,6.859L11.335,6.859L9.521,4.138C9.405,3.964 9.209,3.86 9,3.86C8.745,3.86 8.515,4.016 8.42,4.252L6.772,8.372L5.442,7.042C5.324,6.925 5.166,6.86 5,6.859L1.861,6.859C1.753,6.684 1.637,6.505 1.55,6.338ZM11,8.109C10.791,8.109 10.596,8.005 10.48,7.831L9.139,5.82L7.58,9.717C7.502,9.912 7.331,10.055 7.125,10.097C7.084,10.105 7.042,10.11 7,10.109C6.834,10.109 6.675,10.044 6.558,9.927L4.741,8.109L2.736,8.109C4.102,9.778 5.593,11.34 7.196,12.783C7.372,12.941 7.642,12.941 7.818,12.783C9.416,11.338 10.903,9.776 12.269,8.109L11,8.109Z" style="fill-rule:nonzero;"/>
    </g>
</svg>
