<svg xmlns="http://www.w3.org/2000/svg" height="138pt" version="1.1" viewBox="0 -20 138.73239 138" width="138pt">
<g id="surface1">
<path d="M 122.367188 24.234375 C 122.371094 23.199219 121.539062 22.355469 120.503906 22.351562 C 120.496094 22.351562 120.492188 22.351562 120.492188 22.351562 L 83.003906 22.351562 C 81.96875 22.351562 81.128906 23.191406 81.128906 24.226562 C 81.128906 24.226562 81.128906 24.230469 81.128906 24.234375 C 81.039062 33.707031 80.320312 43.160156 78.976562 52.527344 C 75.746094 35.960938 74.027344 19.132812 73.839844 2.253906 C 73.847656 1.21875 73.011719 0.375 71.976562 0.367188 C 71.972656 0.367188 71.96875 0.367188 71.964844 0.367188 L 23.128906 0.367188 C 22.101562 0.386719 21.285156 1.230469 21.292969 2.253906 C 21.292969 2.855469 21.554688 62.839844 0.296875 96.226562 C -0.261719 97.101562 -0.0078125 98.257812 0.863281 98.820312 C 1.167969 99.015625 1.523438 99.117188 1.886719 99.117188 L 136.847656 99.117188 C 137.882812 99.121094 138.726562 98.289062 138.730469 97.253906 C 138.730469 96.890625 138.628906 96.535156 138.433594 96.226562 C 122.167969 70.675781 122.351562 24.746094 122.367188 24.234375 Z M 84.878906 26.101562 L 118.617188 26.101562 C 118.617188 26.511719 118.617188 27 118.617188 27.519531 L 84.8125 27.519531 C 84.824219 26.984375 84.839844 26.5 84.839844 26.085938 Z M 84.710938 31.269531 L 118.804688 31.269531 C 118.953125 34.882812 119.242188 39.644531 119.8125 45.089844 L 83.652344 45.089844 C 84.222656 39.644531 84.527344 34.875 84.675781 31.261719 Z M 83.226562 48.839844 L 120.203125 48.839844 C 120.335938 49.902344 120.476562 50.980469 120.628906 52.078125 L 82.800781 52.078125 C 82.949219 50.980469 83.089844 49.902344 83.226562 48.839844 Z M 82.25 55.828125 L 121.175781 55.828125 C 122.429688 64.132812 124.367188 72.316406 126.976562 80.296875 L 86.863281 80.296875 C 84.574219 74.40625 82.664062 68.371094 81.136719 62.238281 C 81.550781 60.039062 81.863281 57.902344 82.25 55.816406 Z M 25.042969 4.117188 L 70.089844 4.117188 C 70.089844 4.890625 70.089844 5.917969 70.089844 7.089844 L 24.992188 7.089844 C 25.015625 5.917969 25.027344 4.890625 25.042969 4.117188 Z M 24.867188 10.839844 L 70.265625 10.839844 C 70.457031 15.714844 70.855469 22.335938 71.667969 29.945312 L 23.464844 29.945312 C 24.28125 22.335938 24.679688 15.726562 24.867188 10.851562 Z M 23.039062 33.707031 L 72.089844 33.707031 C 72.300781 35.449219 72.53125 37.230469 72.777344 39.042969 L 22.355469 39.042969 C 22.605469 37.226562 22.835938 35.449219 23.039062 33.707031 Z M 21.789062 42.792969 L 73.339844 42.792969 C 75 53.988281 77.621094 65.011719 81.1875 75.746094 L 13.957031 75.746094 C 17.519531 65.011719 20.140625 53.980469 21.789062 42.792969 Z M 5.21875 95.367188 C 8.121094 90.289062 10.59375 84.980469 12.621094 79.496094 L 82.523438 79.496094 C 84.550781 84.980469 87.023438 90.289062 89.925781 95.367188 Z M 94.300781 95.367188 C 92.078125 91.730469 90.121094 87.949219 88.4375 84.03125 L 128.324219 84.03125 C 129.777344 87.9375 131.527344 91.726562 133.546875 95.367188 Z M 94.300781 95.367188 " style=" stroke:none;fill-rule:nonzero;fill:rgb(0%,0%,0%);fill-opacity:1;" />
</g>
</svg>