<?xml version="1.0" encoding="UTF-8" standalone="no"?>
<!DOCTYPE svg PUBLIC "-//W3C//DTD SVG 1.1//EN" "http://www.w3.org/Graphics/SVG/1.1/DTD/svg11.dtd">
<svg width="100%" height="100%" viewBox="0 0 21 10" version="1.1" xmlns="http://www.w3.org/2000/svg" xmlns:xlink="http://www.w3.org/1999/xlink" xml:space="preserve" xmlns:serif="http://www.serif.com/" style="fill-rule:evenodd;clip-rule:evenodd;stroke-linejoin:round;stroke-miterlimit:2;">
    <g transform="matrix(0.0390625,0,0,0.027425,0.224625,-2.8429)">
        <g>
            <path d="M502.01,381.872L395.696,381.872C396.805,378.745 397.414,375.385 397.414,371.882L397.414,361.892L446.75,361.892C482.445,361.892 511.485,332.853 511.485,297.157C511.485,279.866 504.752,263.609 492.525,251.382L430.14,188.997C430.139,188.996 430.138,188.995 430.136,188.994L401.635,160.493C369.17,128.028 326.006,110.148 280.092,110.148L9.994,110.148C4.477,110.148 0.004,114.621 0.004,120.138C0.004,125.654 4.476,130.128 9.994,130.128L280.092,130.128C320.668,130.128 358.815,145.929 387.506,174.621L398.956,186.071L283.843,186.071C262.911,186.071 245.882,203.101 245.882,224.032C245.882,244.963 262.912,261.993 283.843,261.993L474.88,261.993L478.397,265.51C486.849,273.963 491.506,285.202 491.506,297.157C491.506,321.835 471.428,341.913 446.75,341.913L9.994,341.913C4.477,341.913 0.004,346.386 0.004,351.903C0.004,357.419 4.476,361.893 9.994,361.893L54.465,361.893L54.465,371.883C54.465,375.385 55.074,378.746 56.183,381.873L10.509,381.873C4.992,381.873 0.519,386.346 0.519,391.863C0.519,397.379 4.991,401.853 10.509,401.853L178.339,401.853C183.856,401.853 188.329,397.38 188.329,391.863C188.329,386.347 183.857,381.873 178.339,381.873L112.686,381.873C113.795,378.746 114.404,375.386 114.404,371.883L114.404,361.893L337.475,361.893L337.475,371.883C337.475,375.385 338.084,378.746 339.193,381.873L256.304,381.873C250.787,381.873 246.314,386.346 246.314,391.863C246.314,397.379 250.786,401.853 256.304,401.853L502.01,401.853C507.527,401.853 512,397.38 512,391.863C512,386.346 507.528,381.872 502.01,381.872ZM283.843,242.014C273.928,242.014 265.861,233.947 265.861,224.032C265.861,214.117 273.928,206.05 283.843,206.05L418.937,206.05L454.9,242.013L283.843,242.013L283.843,242.014ZM94.424,371.882C94.424,377.39 89.943,381.872 84.434,381.872C78.926,381.872 74.444,377.391 74.444,371.882L74.444,361.892L94.424,361.892L94.424,371.882ZM377.435,371.882C377.435,377.39 372.954,381.872 367.445,381.872C361.937,381.872 357.455,377.391 357.455,371.882L357.455,361.892L377.435,361.892L377.435,371.882Z" style="fill-rule:nonzero;"/>
        </g>
    </g>
    <g transform="matrix(0.0390625,0,0,0.027425,0.224625,-2.8429)">
        <g>
            <path d="M224.362,384.799C222.504,382.941 219.927,381.872 217.299,381.872C214.672,381.872 212.094,382.94 210.236,384.799C208.378,386.657 207.309,389.234 207.309,391.862C207.309,394.49 208.378,397.067 210.236,398.924C212.094,400.782 214.671,401.852 217.299,401.852C219.926,401.852 222.504,400.783 224.362,398.924C226.22,397.067 227.289,394.489 227.289,391.862C227.289,389.235 226.22,386.657 224.362,384.799Z" style="fill-rule:nonzero;"/>
        </g>
    </g>
    <g transform="matrix(0.0390625,0,0,0.027425,0.224625,-2.8429)">
        <g>
            <path d="M165.836,186.071L48.138,186.071C42.621,186.071 38.148,190.544 38.148,196.061C38.148,201.577 42.62,206.051 48.138,206.051L165.836,206.051C175.751,206.051 183.818,214.118 183.818,224.033C183.818,233.948 175.751,242.015 165.835,242.015L9.994,242.015C4.477,242.015 0.004,246.488 0.004,252.005C0.004,257.522 4.476,261.995 9.994,261.995L165.836,261.995C186.768,261.995 203.797,244.965 203.797,224.034C203.797,203.103 186.767,186.071 165.836,186.071Z" style="fill-rule:nonzero;"/>
        </g>
    </g>
    <g transform="matrix(0.0390625,0,0,0.027425,0.224625,-2.8429)">
        <g>
            <path d="M17.053,188.998C15.195,187.139 12.628,186.071 9.99,186.071C7.363,186.071 4.785,187.139 2.927,188.998C1.069,190.856 0,193.433 0,196.06C0,198.687 1.069,201.265 2.927,203.122C4.785,204.98 7.363,206.05 9.99,206.05C12.627,206.05 15.195,204.981 17.053,203.122C18.921,201.265 19.98,198.687 19.98,196.06C19.98,193.433 18.921,190.856 17.053,188.998Z" style="fill-rule:nonzero;"/>
        </g>
    </g>
</svg>
